# AST/ASF file generated using VICON BodyLanguage
# -----------------------------------------------
:version 1.10
:name VICON
:units
  mass 1.0
  length 0.45
  angle deg
:documentation
   .ast/.asf automatically generated from VICON data using
   VICON BodyBuilder and BodyLanguage model FoxedUp or BRILLIANT.MOD
:root
   order TX TY TZ RX RY RZ
   axis XYZ
   position 0 0 0  
   orientation 0 0 0 
:bonedata
  begin
     id 1 
     name lhipjoint
     direction 0.671379 -0.66392 0.329334 
     length 2.38647 
     axis 0 0 0  XYZ
  end
  begin
     id 2 
     name lfemur
     direction 0.34202 -0.939693 0  
     length 6.48179  
     axis 0 0 20  XYZ
    dof rx ry rz
    limits (-160.0 20.0)
           (-70.0 70.0)
           (-60.0 70.0)
  end
  begin
     id 3 
     name ltibia
     direction 0.34202 -0.939693 0   
     length 6.86524   
     axis 0 0 20   XYZ
    dof rx
    limits (-10.0 170.0)
  end
  begin
     id 4 
     name lfoot
     direction 0.204886 -0.562919 0.800715   
     length 1.73031   
     axis -90 7.62852e-016 20   XYZ
    dof rx rz
    limits (-45.0 90.0)
           (-70.0 20.0)
  end
  begin
     id 5 
     name ltoes
     direction 1.53548e-011 -4.21841e-011 1   
     length 0.828161   
     axis -90 7.62852e-016 20   XYZ
    dof rx
    limits (-90.0 20.0)
  end
  begin
     id 6 
     name rhipjoint
     direction -0.662732 -0.670855 0.332775   
     length 2.3618  
     axis 0 0 0  XYZ 
  end
  begin
     id 7 
     name rfemur
     direction -0.34202 -0.939693 0   
     length 6.3025   
     axis 0 0 -20   XYZ
    dof rx ry rz
    limits (-160.0 20.0)
           (-70.0 70.0)
           (-70.0 60.0)
  end
  begin
     id 8 
     name rtibia
     direction -0.34202 -0.939693 0   
     length 6.8732   
     axis 0 0 -20   XYZ
    dof rx
    limits (-10.0 170.0)
 end
 begin
     id 9 
     name rfoot
     direction -0.173856 -0.477665 0.861168   
     length 1.54784  
     axis -90 -7.62852e-016 -20   XYZ
    dof rx rz
    limits (-45.0 90.0)
           (-20.0 70.0)
  end
  begin
     id 10 
     name rtoes
     direction -1.53562e-011 -4.21802e-011 1   
     length 0.759618   
     axis -90 -7.62852e-016 -20   XYZ
    dof rx
    limits (-90.0 20.0)
  end
  begin
     id 11 
     name lowerback
     direction -0.0278357 0.999497 -0.0151789   
     length 1.97203   
     axis 0 0 0   XYZ
    dof rx ry rz
    limits (-20.0 45.0)
           (-30.0 30.0)
           (-30.0 30.0)
  end
  begin
     id 12 
     name upperback
     direction -0.00360622 0.997542 0.0699804   
     length 1.94709   
     axis 0 0 0   XYZ
    dof rx ry rz
    limits (-20.0 45.0)
           (-30.0 30.0)
           (-30.0 30.0)
  end
  begin
     id 13 
     name thorax
     direction 0.00907706 0.997048 0.0762461   
     length 1.95722   
     axis 0 0 0   XYZ
    dof rx ry rz
    limits (-20.0 45.0)
           (-30.0 30.0)
           (-30.0 30.0)
  end
  begin
     id 14 
     name lowerneck
     direction -0.0481835 0.99872 -0.0153927   
     length 1.63078   
     axis 0 0 0   XYZ
    dof rx ry rz
    limits (-20.0 45.0)
           (-30.0 30.0)
           (-30.0 30.0)
  end
  begin
     id 15 
     name upperneck
     direction 0.0859716 0.979226 -0.183644   
     length 1.62591   
     axis 0 0 0   XYZ
    dof rx ry rz
    limits (-20.0 45.0)
           (-30.0 30.0)
           (-30.0 30.0)
  end
  begin
     id 16
     name head
     direction 0.0324821 0.997629 -0.0606773  
     length 1.64811  
     axis 0 0 0   XYZ
    dof rx ry rz
    limits (-20.0 45.0)
           (-30.0 30.0)
           (-30.0 30.0)
  end
  begin
     id 17 
     name lclavicle
     direction 0.939609 0.311019 0.142835  
     length 3.70647  
     axis 0 0 0   XYZ
    dof ry rz
    limits (-20.0 10.0)
           (0.0 20.0)
  end
  begin
     id 18 
     name lhumerus
     direction 1 -4.48963e-011 -1.59838e-027   
     length 4.59207   
     axis 180 -30 -90   XYZ
    dof rx ry rz
    limits (-60.0 90.0)
           (-90.0 90.0)
           (-90.0 90.0)
  end
  begin
     id 19
     name lradius
     direction 1 -4.48957e-011 -1.3483e-026   
     length 2.98109   
     axis 180 -30 -90   XYZ
    dof rx
    limits (-10.0 170.0)
  end
  begin
     id 20
     name lwrist
     direction 1 -4.48954e-011 -3.11579e-026   
     length 1.49055   
     axis 2.00652e-014 90 90   XYZ
    dof ry
    limits (-180.0 0.0)
 end
  begin
     id 21 
     name lhand
     direction 1 -4.4911e-011 -6.23158e-026   
     length 0.480203   
     axis 3.97628e-014 90 90   XYZ
    dof rx rz
    limits (-90.0 90.0)
           (-45.0 45.0)
  end
  begin
     id 22 
     name lfingers
     direction 1 -4.48893e-011 -1.24632e-025   
     length 0.387152   
     axis 7.95256e-014 90 90   XYZ
    dof rx
    limits (0.0 90.0)
  end
  begin
     id 23
     name lthumb
     direction 0.707107 -6.35013e-011 0.707107   
     length 0.555875   
     axis -90 45 2.85299e-015   XYZ
    dof rx rz
    limits (-45.0 45.0)
           (-45.0 45.0)
  end
  begin
     id 24 
     name rclavicle
     direction -0.950396 0.30392 0.0661859   
     length 3.70894  
     axis 0 0 0   XYZ 
    dof ry rz
    limits (-10.0 20.0)
           (-20.0 0.0)
  end
  begin
     id 25 
     name rhumerus
     direction -1 -4.48957e-011 -2.96677e-027  
     length 4.76508   
     axis 180 30 90   XYZ
    dof rx ry rz
    limits (-90.0 60.0)
           (-90.0 90.0)
           (-90.0 90.0)
  end
  begin
     id 26 
     name rradius
     direction -1 -4.48974e-011 -1.44501e-026   
     length 2.78902   
     axis 180 30 90   XYZ
    dof rx
    limits (-10.0 170.0)
  end
  begin
     id 27 
     name rwrist
     direction -1 -4.48978e-011 -3.11579e-026   
     length 1.39451   
     axis 2.00652e-014 -90 -90   XYZ
    dof ry
    limits (-180.0 0.0)
  end
  begin
     id 28
     name rhand
     direction -1 -4.48956e-011 -6.23158e-026   
     length 0.721303   
     axis 3.97628e-014 -90 -90   XYZ
    dof rx rz
    limits (-90.0 90.0)
           (-45.0 45.0)
  end
  begin
     id 29
     name rfingers
     direction -1 -4.4899e-011 -1.24632e-025   
     length 0.581533   
     axis 7.95256e-014 -90 -90   XYZ
    dof rx
    limits (0.0 90.0)
  end
  begin
     id 30
     name rthumb
     direction -0.707107 -6.34911e-011 0.707107   
     length 0.834968   
     axis -90 -45 -2.85299e-015   XYZ
    dof rx rz
    limits (-45.0 45.0)
           (-45.0 45.0)
  end
:hierarchy
  begin
    root lhipjoint rhipjoint lowerback
    lhipjoint lfemur
    lfemur ltibia
    ltibia lfoot
    lfoot ltoes
    rhipjoint rfemur
    rfemur rtibia
    rtibia rfoot
    rfoot rtoes
    lowerback upperback
    upperback thorax
    thorax lowerneck lclavicle rclavicle
    lowerneck upperneck
    upperneck head
    lclavicle lhumerus
    lhumerus lradius
    lradius lwrist
    lwrist lhand lthumb
    lhand lfingers
    rclavicle rhumerus
    rhumerus rradius
    rradius rwrist
    rwrist rhand rthumb
    rhand rfingers
  end

#!OML:ASF I:\salsa\salsa 7_09\Patient 1\Session 1\dancerfemale.ASF
:FULLY-SPECIFIED
:DEGREES
781
root 1.08841 15.7118 3.59892 -532.591 5.16487 185.617
lowerback 0.637146 11.121 12.0114
upperback -7.61346 16.3474 0.295363
thorax -5.41829 7.82574 -6.55378
lowerneck -3.57286 -6.55483 -14.1556
upperneck 27.0303 -10.7402 3.76139
head 10.1765 -6.79238 2.45937
rclavicle -1.25383e-013 5.96354e-015
rhumerus 36.5065 36.473 -73.4781
rradius 93.1968
rwrist -0.864392
rhand 2.12316 73.8467
rfingers 7.12502
rthumb 27.6224 45.8543
lclavicle -1.25383e-013 5.96354e-015
lhumerus -58.7807 35.9713 12.1688
lradius 120.641
lwrist 20.1754
lhand 21.9029 40.0671
lfingers 7.12502
lthumb 46.3035 63.0342
rfemur -3.01956 -13.5943 24.8424
rtibia 40.6725
rfoot -7.69373 8.58026
rtoes -40.8386
lfemur -34.832 12.8092 -29.9666
ltibia 46.1765
lfoot -31.4131 7.91386
ltoes 22.0355
782
root 1.11202 15.7054 3.38641 -532.729 0.896243 183.565
lowerback 0.194071 10.7142 10.8843
upperback -7.85324 15.7507 -0.144435
thorax -5.67432 7.5754 -6.43321
lowerneck -3.60551 -6.90446 -14.4175
upperneck 27.0647 -10.9487 3.04642
head 10.2047 -6.95817 2.21954
rclavicle 9.73051e-014 3.97569e-014
rhumerus 37.888 38.3543 -73.8763
rradius 93.6688
rwrist -0.875788
rhand 2.05858 72.7983
rfingers 7.12502
rthumb 27.5606 44.796
lclavicle 9.73051e-014 3.97569e-014
lhumerus -58.1617 35.6951 14.1405
lradius 120.077
lwrist 15.6262
lhand 16.428 38.8945
lfingers 7.12502
lthumb 41.1941 63.7489
rfemur -7.18945 -15.9547 22.3489
rtibia 48.0782
rfoot -1.65732 11.0424
rtoes -39.0674
lfemur -32.8007 8.97139 -31.5811
ltibia 44.7633
lfoot -31.0199 7.05592
ltoes 21.2946
783
root 1.16154 15.6141 3.21041 -532.515 -3.7204 181.228
lowerback 0.0466358 11.297 9.20713
upperback -8.30094 14.9412 -0.739896
thorax -6.31938 6.55564 -6.16654
lowerneck -3.68563 -7.25629 -14.8804
upperneck 27.0021 -11.1555 2.56243
head 10.2325 -7.10882 2.09172
rclavicle 2.73329e-014 -8.74653e-015
rhumerus 38.933 40.0439 -74.2256
rradius 94.1442
rwrist -1.22249
rhand 2.21853 71.576
rfingers 7.12502
rthumb 27.7136 43.5983
lclavicle 2.73329e-014 -8.74653e-015
lhumerus -57.2651 35.2886 16.4499
lradius 119.713
lwrist 11.3221
lhand 11.2654 37.324
lfingers 7.12502
lthumb 36.3255 63.5599
rfemur -12.0868 -18.2045 19.6709
rtibia 55.9617
rfoot 1.68461 14.9187
rtoes -36.308
lfemur -31.4905 5.11842 -33.6157
ltibia 43.9994
lfoot -30.2961 6.21789
ltoes 21.2925
784
root 1.23927 15.5441 3.05217 -532.157 -8.76632 178.73
lowerback 0.350938 10.7741 7.2492
upperback -8.65728 14.1997 -1.25991
thorax -7.29867 6.23557 -5.87764
lowerneck -3.09687 -7.69381 -15.6286
upperneck 26.2784 -11.6158 2.50147
head 9.96235 -7.33893 2.17065
rclavicle -9.93923e-015 1.11319e-014
rhumerus 40.1382 41.5874 -74.418
rradius 94.4742
rwrist -1.53626
rhand 2.64891 70.1229
rfingers 7.12502
rthumb 28.125 42.212
lclavicle -9.93923e-015 1.11319e-014
lhumerus -56.1072 35.1046 18.8999
lradius 119.47
lwrist 6.99433
lhand 8.07739 35.2063
lfingers 7.12502
lthumb 33.3006 62.1426
rfemur -16.7458 -19.8995 17.0961
rtibia 63.0849
rfoot 2.71529 16.9987
rtoes -35.1588
lfemur -30.0596 1.45836 -35.6561
ltibia 43.4846
lfoot -29.5611 5.12788
ltoes 21.5862
785
root 1.3249 15.4601 2.88148 -531.615 -13.4681 175.991
lowerback 0.711882 10.3848 5.07678
upperback -8.79137 13.594 -1.86444
thorax -8.0608 6.03182 -5.51985
lowerneck -2.94724 -8.09317 -15.7471
upperneck 25.5097 -11.8754 2.02657
head 9.67103 -7.43358 2.01898
rclavicle 5.26779e-015 1.63003e-014
rhumerus 41.6272 42.9835 -74.391
rradius 94.486
rwrist -1.33279
rhand 2.61035 68.4407
rfingers 7.12502
rthumb 28.0882 40.5237
lclavicle 5.26779e-015 1.63003e-014
lhumerus -54.4646 35.001 21.4893
lradius 119.313
lwrist 3.38034
lhand 6.02301 34.1065
lfingers 7.12502
lthumb 31.3452 61.4416
rfemur -20.9473 -20.7263 14.1176
rtibia 69.0305
rfoot 0.848014 17.0631
rtoes -39.7296
lfemur -28.5236 -1.46063 -37.9209
ltibia 43.2824
lfoot -29.1606 3.84385
ltoes 21.4708
786
root 1.42205 15.4155 2.70252 -530.812 -18.0287 173.739
lowerback 1.22289 10.1509 3.32123
upperback -9.0237 13.1795 -2.40565
thorax -8.91497 5.88577 -5.32903
lowerneck -1.64593 -9.02267 -16.5888
upperneck 24.7103 -13.2407 1.95409
head 9.35513 -8.11175 2.03458
rclavicle -3.99557e-014 1.86858e-014
rhumerus 42.6505 44.1334 -74.9944
rradius 93.9219
rwrist -0.55906
rhand 2.06044 66.0493
rfingers 7.12502
rthumb 27.5624 38.0473
lclavicle -3.99557e-014 1.86858e-014
lhumerus -52.4971 34.7389 24.1537
lradius 119.242
lwrist 1.28661
lhand 4.60599 33.7356
lfingers 7.12502
lthumb 29.9941 61.324
rfemur -24.5832 -19.7337 11.8526
rtibia 73.2614
rfoot -0.701383 16.1103
rtoes -37.984
lfemur -27.0895 -3.63155 -39.4934
ltibia 43.11
lfoot -28.8087 1.93331
ltoes 20.7157
787
root 1.53299 15.391 2.51822 -529.991 -22.6758 172.705
lowerback 1.58053 10.0056 2.75006
upperback -9.33301 12.9395 -2.6866
thorax -9.55201 5.75826 -5.43641
lowerneck -1.02797 -9.71986 -17.0607
upperneck 24.2582 -14.1804 1.84871
head 9.2194 -8.56116 1.99556
rclavicle -9.83984e-015 -1.47101e-014
rhumerus 43.1581 45.0863 -75.9339
rradius 93.1656
rwrist 0.236857
rhand 2.65328 65.1589
rfingers 7.12502
rthumb 28.1292 37.2487
lclavicle -9.83984e-015 -1.47101e-014
lhumerus -50.6018 34.4482 26.8759
lradius 119.336
lwrist 0.690967
lhand 3.6505 33.3116
lfingers 7.12502
lthumb 29.082 61.0612
rfemur -28.0978 -16.9969 11.0812
rtibia 75.6767
rfoot -2.40485 15.0641
rtoes -37.1497
lfemur -26.1709 -5.29879 -39.5933
ltibia 43.1991
lfoot -28.2944 -0.484562
ltoes 19.5418
788
root 1.64574 15.3864 2.3241 -529.154 -27.2931 172.083
lowerback 1.62801 9.9052 2.66686
upperback -9.52389 12.7913 -2.89304
thorax -9.77843 5.67092 -5.63462
lowerneck -0.410771 -10.3856 -17.176
upperneck 23.4128 -15.0772 1.87818
head 8.92048 -8.92387 1.97435
rclavicle 5.85421e-014 4.45278e-014
rhumerus 43.611 45.8937 -76.8154
rradius 92.6858
rwrist 0.808258
rhand 3.14645 64.4473
rfingers 7.12502
rthumb 28.6005 36.6155
lclavicle 5.85421e-014 4.45278e-014
lhumerus -48.8039 34.0869 29.6451
lradius 119.63
lwrist 1.04192
lhand 2.65904 33.2718
lfingers 7.12502
lthumb 28.1347 61.1811
rfemur -30.9798 -13.2833 10.3648
rtibia 76.6054
rfoot -4.47769 13.3002
rtoes -35.3561
lfemur -25.5073 -6.51787 -39.1024
ltibia 43.4015
lfoot -27.624 -3.2164
ltoes 17.8635
789
root 1.75406 15.3912 2.12119 -528.333 -31.9342 171.329
lowerback 1.63969 9.76399 2.62777
upperback -9.57256 12.6014 -3.09099
thorax -9.82138 5.57822 -5.81819
lowerneck 0.358208 -11.108 -18.2431
upperneck 22.6918 -16.2206 2.6555
head 8.82152 -9.43275 2.29867
rclavicle -6.03311e-014 -1.19271e-015
rhumerus 43.8257 46.8155 -77.7072
rradius 92.4255
rwrist 1.60606
rhand 2.65033 63.5468
rfingers 7.12502
rthumb 28.1264 35.6361
lclavicle -6.03311e-014 -1.19271e-015
lhumerus -47.3187 33.5667 32.2376
lradius 120.066
lwrist 1.64294
lhand 1.5471 33.3928
lfingers 7.12502
lthumb 27.0714 61.4721
rfemur -32.8255 -9.13548 8.85764
rtibia 76.25
rfoot -6.25025 11.8111
rtoes -36.5656
lfemur -24.8538 -7.58705 -38.5507
ltibia 43.7728
lfoot -26.8786 -6.30484
ltoes 17.0469
790
root 1.86637 15.4151 1.91599 -527.866 -37.0037 170.872
lowerback 2.05416 9.48732 2.94746
upperback -9.66172 12.2897 -3.13581
thorax -10.1223 5.38868 -6.10273
lowerneck 0.881506 -11.7492 -17.5204
upperneck 21.6571 -16.9451 1.9843
head 8.32718 -9.70469 1.96867
rclavicle -4.08502e-014 -3.06128e-014
rhumerus 43.2846 47.76 -79.0465
rradius 92.354
rwrist 2.29597
rhand 1.5057 62.4154
rfingers 7.12502
rthumb 27.0318 34.33
lclavicle -4.08502e-014 -3.06128e-014
lhumerus -46.3253 32.7863 34.5814
lradius 120.509
lwrist 1.95843
lhand 0.580745 33.1228
lfingers 7.12502
lthumb 26.1465 61.3424
rfemur -33.7114 -4.69438 7.37422
rtibia 74.7229
rfoot -7.7631 9.86594
rtoes -35.5475
lfemur -24.037 -8.8627 -37.4659
ltibia 43.9973
lfoot -25.6739 -9.42673
ltoes 17.6291
791
root 1.99029 15.4472 1.70111 -527.66 -42.5727 170.685
lowerback 2.61634 9.12538 3.40271
upperback -9.78695 11.8944 -3.0775
thorax -10.5645 5.14084 -6.37561
lowerneck 1.77717 -12.4981 -17.8164
upperneck 21.276 -18.1124 2.06578
head 8.20503 -10.2592 1.96497
rclavicle 5.99336e-014 2.0276e-014
rhumerus 41.8863 48.2653 -81.192
rradius 92.4586
rwrist 2.18381
rhand 1.45156 61.5519
rfingers 7.12502
rthumb 26.98 33.4584
lclavicle 5.99336e-014 2.0276e-014
lhumerus -45.514 31.7496 36.9579
lradius 120.947
lwrist 1.73509
lhand -0.264375 32.5502
lfingers 7.12502
lthumb 25.3371 60.8871
rfemur -33.7643 0.0391231 5.9337
rtibia 72.4313
rfoot -9.27191 9.09296
rtoes -31.7119
lfemur -23.266 -10.5196 -35.8989
ltibia 44.1739
lfoot -24.2201 -12.3258
ltoes 17.8858
792
root 2.1019 15.5271 1.46668 -527.198 -48.3927 170.176
lowerback 2.6965 8.74 3.47716
upperback -9.72659 11.423 -2.98828
thorax -10.604 4.92189 -6.29777
lowerneck 2.59278 -13.36 -17.6624
upperneck 20.6999 -19.3578 1.90739
head 7.97061 -10.8234 1.82837
rclavicle -1.35671e-013 -1.19271e-015
rhumerus 40.6939 48.4595 -83.1368
rradius 92.8349
rwrist 1.58837
rhand 1.93422 60.7797
rfingers 7.12502
rthumb 27.4417 32.7586
lclavicle -1.35671e-013 -1.19271e-015
lhumerus -44.6803 30.7899 39.5778
lradius 121.393
lwrist 1.14261
lhand -1.20546 32.0424
lfingers 7.12502
lthumb 24.4353 60.504
rfemur -33.165 4.63302 4.04114
rtibia 69.2718
rfoot -10.7259 10.5143
rtoes -32.896
lfemur -22.381 -12.3748 -34.3906
ltibia 43.9367
lfoot -22.5778 -15.2435
ltoes 17.7369
793
root 2.22511 15.5873 1.22199 -526.064 -54.7292 169.14
lowerback 2.44139 8.22349 3.15349
upperback -9.63907 10.7249 -2.8572
thorax -10.5179 4.63563 -5.88901
lowerneck 3.46622 -14.2505 -17.4393
upperneck 19.9388 -20.6335 1.77341
head 7.65959 -11.392 1.71099
rclavicle 1.09332e-014 -1.35174e-014
rhumerus 39.1307 48.5122 -85.6294
rradius 92.9764
rwrist 1.72881
rhand 1.83321 60.8908
rfingers 7.12502
rthumb 27.3451 32.8543
lclavicle 1.09332e-014 -1.35174e-014
lhumerus -43.9473 29.9124 42.3767
lradius 121.775
lwrist 0.490333
lhand -2.01323 31.8029
lfingers 7.12502
lthumb 23.6607 60.3668
rfemur -32.5014 8.91809 1.99332
rtibia 65.9343
rfoot -12.0586 12.9241
rtoes -33.7402
lfemur -21.9962 -14.1802 -32.858
ltibia 43.587
lfoot -20.3014 -18.5369
ltoes 17.9122
794
root 2.30808 15.6909 0.962472 -525.195 -60.7674 168.262
lowerback 2.05333 7.84343 2.95819
upperback -9.51901 10.2297 -2.59445
thorax -10.2866 4.45164 -5.39843
lowerneck 4.81831 -14.912 -18.4522
upperneck 19.2016 -21.9519 2.98021
head 7.57743 -12.0001 2.17044
rclavicle 1.0953e-013 3.57812e-014
rhumerus 37.4307 48.5329 -87.9986
rradius 93.4567
rwrist 2.24937
rhand 1.02769 61.1001
rfingers 7.12502
rthumb 26.5743 32.9445
lclavicle 1.0953e-013 3.57812e-014
lhumerus -43.5265 28.859 45.0759
lradius 122.058
lwrist 0.106249
lhand -2.55564 31.7898
lfingers 7.12502
lthumb 23.1404 60.4201
rfemur -31.2384 14.0961 0.343367
rtibia 62.2247
rfoot -12.5729 15.7607
rtoes -35.2188
lfemur -21.2934 -16.2445 -31.1772
ltibia 42.9737
lfoot -18.148 -20.8437
ltoes 17.4803
